<svg xmlns="http://www.w3.org/2000/svg" width="48" height="48" viewBox="0 0 240 240" fill="none">
  <defs>
    <linearGradient id="favGrad" x1="20" y1="30" x2="220" y2="220" gradientUnits="userSpaceOnUse">
      <stop offset="0%" stop-color="#B391C8"/>
      <stop offset="47%" stop-color="#6F7CFF"/>
      <stop offset="100%" stop-color="#7CC8B5"/>
    </linearGradient>
  </defs>
  <rect width="240" height="240" rx="54" fill="url(#favGrad)"/>
  <path d="M143 38 C107 19 60 38 42 82 C23 129 49 184 99 201 C132 212 170 202 194 176" fill="none" stroke="white" stroke-width="16" stroke-linecap="round" stroke-linejoin="round"/>
  <path d="M82 104 C82 82 110 76 128 101 C146 76 174 82 174 104 C174 135 128 164 128 164 C128 164 82 135 82 104 Z" fill="none" stroke="white" stroke-width="16" stroke-linecap="round" stroke-linejoin="round"/>
  <path d="M111 135 L121 135 L126 121 L133 153 L140 135 L153 135" fill="none" stroke="white" stroke-width="8" stroke-linecap="round" stroke-linejoin="round"/>
</svg>
